# Blender v3.1.2 OBJ File: ''
# www.blender.org
mtllib cursor.mtl
o Cube
v 2.527685 0.141428 -0.156035
v 2.527685 -0.141428 -0.156035
v 2.527685 0.141428 0.156035
v 2.527685 -0.141428 0.156035
v 0.527685 0.141428 -0.156035
v 0.527685 -0.141428 -0.156035
v 0.527685 0.141428 0.156035
v 0.527685 -0.141428 0.156035
v -0.608709 0.141428 -0.156035
v -0.608709 -0.141428 -0.156035
v -0.608709 0.141428 0.156035
v -0.608709 -0.141428 0.156035
v -2.608709 0.141428 -0.156035
v -2.608709 -0.141428 -0.156035
v -2.608709 0.141428 0.156035
v -2.608709 -0.141428 0.156035
v -0.181634 -0.568273 -0.156035
v 0.101221 -0.568121 -0.156035
v -0.181634 -0.568273 0.156035
v 0.101221 -0.568121 0.156035
v -0.180558 -2.568272 -0.156035
v 0.102297 -2.568120 -0.156035
v -0.180558 -2.568272 0.156035
v 0.102297 -2.568120 0.156035
v -0.183321 2.568120 -0.156035
v 0.099534 2.568272 -0.156035
v -0.183321 2.568120 0.156035
v 0.099534 2.568272 0.156035
v -0.182245 0.568121 -0.156035
v 0.100610 0.568273 -0.156035
v -0.182245 0.568121 0.156035
v 0.100610 0.568273 0.156035
vt 0.625000 0.500000
vt 0.875000 0.500000
vt 0.875000 0.750000
vt 0.625000 0.750000
vt 0.375000 0.750000
vt 0.625000 1.000000
vt 0.375000 1.000000
vt 0.375000 0.000000
vt 0.625000 0.000000
vt 0.625000 0.250000
vt 0.375000 0.250000
vt 0.125000 0.500000
vt 0.375000 0.500000
vt 0.125000 0.750000
vt 0.625000 0.500000
vt 0.875000 0.500000
vt 0.875000 0.750000
vt 0.625000 0.750000
vt 0.375000 0.750000
vt 0.625000 1.000000
vt 0.375000 1.000000
vt 0.375000 0.000000
vt 0.625000 0.000000
vt 0.625000 0.250000
vt 0.375000 0.250000
vt 0.125000 0.500000
vt 0.375000 0.500000
vt 0.125000 0.750000
vt 0.625000 0.500000
vt 0.875000 0.500000
vt 0.875000 0.750000
vt 0.625000 0.750000
vt 0.375000 0.750000
vt 0.625000 1.000000
vt 0.375000 1.000000
vt 0.375000 0.000000
vt 0.625000 0.000000
vt 0.625000 0.250000
vt 0.375000 0.250000
vt 0.125000 0.500000
vt 0.375000 0.500000
vt 0.125000 0.750000
vt 0.625000 0.500000
vt 0.875000 0.500000
vt 0.875000 0.750000
vt 0.625000 0.750000
vt 0.375000 0.750000
vt 0.625000 1.000000
vt 0.375000 1.000000
vt 0.375000 0.000000
vt 0.625000 0.000000
vt 0.625000 0.250000
vt 0.375000 0.250000
vt 0.125000 0.500000
vt 0.375000 0.500000
vt 0.125000 0.750000
vn 0.0000 1.0000 0.0000
vn 0.0000 0.0000 1.0000
vn -1.0000 0.0000 0.0000
vn 0.0000 -1.0000 0.0000
vn 1.0000 0.0000 0.0000
vn 0.0000 0.0000 -1.0000
vn -1.0000 -0.0005 0.0000
vn 0.0005 -1.0000 0.0000
vn 1.0000 0.0005 0.0000
vn -0.0005 1.0000 0.0000
usemtl Material
s off
f 1/1/1 5/2/1 7/3/1 3/4/1
f 4/5/2 3/4/2 7/6/2 8/7/2
f 8/8/3 7/9/3 5/10/3 6/11/3
f 6/12/4 2/13/4 4/5/4 8/14/4
f 2/13/5 1/1/5 3/4/5 4/5/5
f 6/11/6 5/10/6 1/1/6 2/13/6
usemtl Material.001
f 9/15/1 13/16/1 15/17/1 11/18/1
f 12/19/2 11/18/2 15/20/2 16/21/2
f 16/22/3 15/23/3 13/24/3 14/25/3
f 14/26/4 10/27/4 12/19/4 16/28/4
f 10/27/5 9/15/5 11/18/5 12/19/5
f 14/25/6 13/24/6 9/15/6 10/27/6
usemtl Material.002
f 17/29/7 21/30/7 23/31/7 19/32/7
f 20/33/2 19/32/2 23/34/2 24/35/2
f 24/36/8 23/37/8 21/38/8 22/39/8
f 22/40/9 18/41/9 20/33/9 24/42/9
f 18/41/10 17/29/10 19/32/10 20/33/10
f 22/39/6 21/38/6 17/29/6 18/41/6
usemtl Material.003
f 25/43/7 29/44/7 31/45/7 27/46/7
f 28/47/2 27/46/2 31/48/2 32/49/2
f 32/50/8 31/51/8 29/52/8 30/53/8
f 30/54/9 26/55/9 28/47/9 32/56/9
f 26/55/10 25/43/10 27/46/10 28/47/10
f 30/53/6 29/52/6 25/43/6 26/55/6
